<?xml version="1.0" standalone="no"?>
<!DOCTYPE svg PUBLIC "-//W3C//DTD SVG 20010904//EN"
 "http://www.w3.org/TR/2001/REC-SVG-20010904/DTD/svg10.dtd">
<svg version="1.0" xmlns="http://www.w3.org/2000/svg"
 width="500.000000pt" height="500.000000pt" viewBox="0 0 500.000000 500.000000"
 preserveAspectRatio="xMidYMid meet">
<metadata>
Created by potrace 1.14, written by Peter Selinger 2001-2017
</metadata>
<g transform="translate(0.000000,500.000000) scale(0.100000,-0.100000)"
fill="#000000" stroke="none">
<path d="M2666 4201 c-227 -286 -344 -496 -401 -716 -31 -121 -37 -169 -36
-306 1 -218 69 -413 188 -538 30 -31 65 -109 61 -136 -3 -23 -55 -51 -108 -59
-31 -4 -39 0 -80 42 -128 134 -231 362 -246 546 -3 39 -9 74 -13 79 -8 8 -279
-262 -511 -510 -75 -80 -97 -114 -125 -198 -23 -68 -26 -91 -22 -155 6 -94 40
-188 94 -260 22 -30 145 -161 272 -290 127 -129 340 -347 474 -483 136 -140
264 -262 292 -279 65 -41 164 -49 251 -23 65 20 48 4 669 636 447 456 469 483
498 626 27 132 -4 269 -85 373 -11 14 -176 185 -368 380 -408 414 -476 496
-556 665 -55 114 -106 317 -153 603 l-16 103 -79 -100z"/>
</g>
</svg>
